# xmcd
#
# Track frame offsets:
#	150
#	15420
#	30542
#	49970
#	64059
#	78638
#	90506
#	102557
#	119564
#	136962
#	154212
#	167009
#	184737
#	207008
#	222838
#
# Disc length: 3195 seconds
#
# Revision: 1
# Processed by: cddbd v1.5.2PL0 Copyright (c) Steve Scherf et al.
# Submitted via: audiograbber 1.83.01
#
DISCID=cc0c790f
DTITLE=Diego and Ricardo - Acústico Ao Vivo - Vol. 3
DYEAR=2007
DGENRE=Sertanejo
TTITLE0=Bandida
TTITLE1=Coração Na Contra-mão
TTITLE2=Tá Na Cara
TTITLE3=By By Tristeza
TTITLE4=Tudo Bem
TTITLE5=Cerveja No Gogó
TTITLE6=Me Esqueci
TTITLE7=Tanto Tempo
TTITLE8=Amar Amar
TTITLE9=A Gente Ainda Se Ama
TTITLE10=O Que É Que Há
TTITLE11=Tudo Deu Em Nada
TTITLE12=Dou A Vida Por Um Beijo
TTITLE13=Perigo
TTITLE14=Um Milhão De Cópias
EXTD=
EXTT0=
EXTT1=
EXTT2=
EXTT3=
EXTT4=
EXTT5=
EXTT6=
EXTT7=
EXTT8=
EXTT9=
EXTT10=
EXTT11=
EXTT12=
EXTT13=
EXTT14=
PLAYORDER=
